# Blender 4.0.2
# www.blender.org
mtllib wallNarrow.mtl
o wallNarrow
v -2.446634 -3.208964 5.011024
v -2.446634 -6.008964 5.011024
v -2.446634 -3.208965 -4.988976
v -2.446634 -6.008965 -4.988976
v 2.553366 -6.008964 5.011024
v 2.553366 -3.208964 5.011024
v 2.553366 -6.008965 -4.988976
v 2.553366 -3.208965 -4.988976
v 2.203366 -1.508964 5.011024
v -2.096634 -1.508964 5.011024
v 2.203366 4.091037 5.011024
v -2.096634 4.091037 5.011024
v 2.553366 5.091037 5.011024
v -2.446634 5.091037 5.011024
v 2.553366 5.791037 5.011024
v -0.354991 5.791037 5.011024
v -2.446634 6.641036 5.011024
v -1.251585 6.191036 5.011024
v -0.354991 6.191036 5.011024
v -1.251585 6.641036 5.011024
v -2.096634 -1.508964 -4.988976
v 2.203366 -1.508964 -4.988976
v 2.553366 5.091036 -4.988976
v 2.203366 4.091036 -4.988976
v -2.446634 5.091036 -4.988976
v -2.096634 4.091036 -4.988976
v -2.446634 7.091036 2.511024
v -2.446634 6.641036 2.511024
v -2.446634 7.091036 0.011023
v -2.446634 6.641036 0.011023
v -2.446634 6.641036 -2.488976
v -2.446634 7.091036 -4.988976
v -2.446634 7.091036 -2.488976
v 2.553366 5.791036 -4.988976
v -1.251585 6.191036 2.511024
v -0.751585 6.191036 2.511024
v -0.751585 6.191036 0.011024
v -0.751585 6.191036 -2.488976
v -0.354991 6.191035 -4.988976
v -0.751585 6.191035 -4.988976
v -1.251585 6.191036 -2.488976
v -1.251585 6.191036 0.011024
v -0.751585 7.091036 -2.488976
v -0.751585 7.091036 -4.988976
v -0.751585 7.091036 2.511024
v -0.751585 7.091036 0.011023
v -1.251585 6.641036 0.011023
v -1.251585 6.641036 -2.488976
v -1.251585 6.641036 2.511024
v -0.354991 5.791036 -4.988976
vn -1.0000 -0.0000 -0.0000
vn 1.0000 -0.0000 -0.0000
vn -0.0000 -0.0000 1.0000
vn -0.9795 0.2017 -0.0000
vn 0.9795 0.2017 -0.0000
vn 0.9439 -0.3304 -0.0000
vn -0.9439 -0.3304 -0.0000
vn -0.0000 1.0000 -0.0000
vn -0.0000 -0.0000 -1.0000
vn -0.0000 -1.0000 -0.0000
vt 0.000000 0.000000
vt 0.000000 11.023620
vt -39.370079 11.023620
vt -39.370079 0.000000
vt 39.370079 0.000000
vt 39.370079 11.023620
vt 19.685040 0.000000
vt 19.685040 11.023620
vt 18.307091 17.716539
vt 1.377953 17.716539
vt 18.307091 39.763779
vt 1.377953 39.763779
vt 19.685040 43.700790
vt 0.000000 43.700790
vt 19.685040 46.456692
vt 8.234817 46.456692
vt 0.000000 49.803150
vt 4.704919 48.031502
vt 8.234817 48.031502
vt 4.704919 49.803150
vt 0.000000 10.797160
vt 0.000000 17.630449
vt -39.370079 17.630449
vt -39.370079 10.797160
vt 0.000000 13.660910
vt -0.000000 6.827619
vt 39.370079 6.827619
vt 39.370079 13.660910
vt 39.370079 47.750309
vt 0.000000 47.750309
vt 0.000000 43.579128
vt 39.370079 43.579128
vt 0.000000 37.076172
vt 0.000000 41.247349
vt -39.370079 41.247349
vt -39.370079 37.076172
vt -9.842520 49.803150
vt -9.842520 51.574799
vt -19.685040 51.574799
vt -19.685040 49.803150
vt -39.370079 43.700790
vt -29.527559 49.803150
vt -39.370079 51.574799
vt -29.527559 51.574799
vt 0.000000 46.456692
vt 39.370079 43.700790
vt 39.370079 46.456692
vt 4.704919 9.842520
vt 4.704919 -0.000000
vt 8.234817 0.000000
vt 6.673423 9.842520
vt 6.673423 19.685040
vt 6.673423 29.527559
vt 8.234817 39.370079
vt 6.673423 39.370079
vt 4.704919 29.527559
vt 4.704919 19.685040
vt 29.527559 51.574799
vt 29.527559 48.031502
vt 39.370079 48.031502
vt 39.370079 51.574799
vt 9.842520 51.574799
vt 9.842520 48.031502
vt 19.685040 48.031502
vt 19.685040 51.574799
vt 0.000000 19.685040
vt 0.000000 9.842520
vt -0.000000 39.370079
vt 0.000000 29.527559
vt -0.000000 49.803150
vt -0.000000 48.031502
vt 9.842520 49.803150
vt 6.673423 48.031502
vt 6.673423 51.574799
vt 0.000000 51.574799
vt 19.685040 49.803150
vt 29.527559 49.803150
vt -0.000000 49.803150
vt -0.000000 51.574799
vt -4.704919 49.803150
vt -6.673423 51.574799
vt -6.673423 48.031502
vt -4.704919 48.031502
vt 0.000000 48.031502
vt 0.000000 46.456692
vt -19.685040 43.700790
vt -8.234817 46.456692
vt -19.685040 46.456692
vt 0.000000 43.700790
vt -18.307091 39.763779
vt -1.377953 39.763779
vt -18.307091 17.716539
vt -1.377953 17.716539
vt -19.685040 11.023620
vt 0.000000 11.023620
vt -19.685040 -0.000000
vt 0.000000 -0.000000
vt 0.000000 51.574799
vt -8.234817 48.031502
vt 0.000000 39.370079
vt -19.685040 39.370079
vt -19.685040 0.000000
vt 0.000000 17.716539
vt 0.000000 39.763779
vt -39.370079 39.763779
vt -39.370079 17.716539
vt 0.000000 39.763779
vt 0.000000 17.716539
vt 39.370079 17.716539
vt 39.370079 39.763779
vt 19.685040 39.370079
vt 19.685040 0.000000
s 0
usemtl wall.008
f 2/1/1 1/2/1 3/3/1
f 3/3/1 4/4/1 2/1/1
f 6/2/2 5/1/2 7/5/2
f 7/5/2 8/6/2 6/2/2
f 2/1/3 5/7/3 6/8/3
f 6/8/3 1/2/3 2/1/3
f 6/8/3 9/9/3 1/2/3
f 9/9/3 10/10/3 1/2/3
f 9/9/3 11/11/3 10/10/3
f 11/11/3 12/12/3 10/10/3
f 11/11/3 13/13/3 12/12/3
f 13/13/3 14/14/3 12/12/3
f 13/13/3 15/15/3 14/14/3
f 15/15/3 16/16/3 14/14/3
f 16/16/3 17/17/3 14/14/3
f 16/16/3 18/18/3 17/17/3
f 16/16/3 19/19/3 18/18/3
f 18/18/3 20/20/3 17/17/3
f 1/21/4 10/22/4 21/23/4
f 21/23/4 3/24/4 1/21/4
f 9/25/5 6/26/5 8/27/5
f 8/27/5 22/28/5 9/25/5
f 23/29/6 13/30/6 11/31/6
f 11/31/6 24/32/6 23/29/6
f 12/33/7 14/34/7 25/35/7
f 25/35/7 26/36/7 12/33/7
f 28/37/1 27/38/1 29/39/1
f 28/37/1 29/39/1 30/40/1
f 28/37/1 30/40/1 25/41/1
f 28/37/1 25/41/1 14/14/1
f 14/14/1 17/17/1 28/37/1
f 30/40/1 31/42/1 25/41/1
f 31/42/1 32/43/1 25/41/1
f 31/42/1 33/44/1 32/43/1
f 15/45/2 13/14/2 23/46/2
f 23/46/2 34/47/2 15/45/2
f 35/48/8 18/49/8 19/50/8
f 19/50/8 36/51/8 35/48/8
f 19/50/8 37/52/8 36/51/8
f 19/50/8 38/53/8 37/52/8
f 19/50/8 39/54/8 38/53/8
f 40/55/8 38/53/8 39/54/8
f 37/52/8 38/53/8 41/56/8
f 41/56/8 42/57/8 37/52/8
f 43/58/2 38/59/2 40/60/2
f 40/60/2 44/61/2 43/58/2
f 45/62/2 36/63/2 37/64/2
f 37/64/2 46/65/2 45/62/2
f 29/66/8 27/67/8 45/51/8
f 45/51/8 46/52/8 29/66/8
f 44/55/8 32/68/8 33/69/8
f 33/69/8 43/53/8 44/55/8
f 31/69/8 30/66/8 47/57/8
f 47/57/8 48/56/8 31/69/8
f 28/67/8 17/1/8 20/49/8
f 20/49/8 49/48/8 28/67/8
f 20/70/2 18/71/2 35/63/2
f 35/63/2 49/72/2 20/70/2
f 35/18/3 36/73/3 45/74/3
f 45/74/3 49/20/3 35/18/3
f 45/74/3 28/17/3 49/20/3
f 45/74/3 27/75/3 28/17/3
f 47/76/2 42/64/2 41/59/2
f 41/59/2 48/77/2 47/76/2
f 41/18/3 38/73/3 43/74/3
f 43/74/3 48/20/3 41/18/3
f 43/74/3 31/78/3 48/20/3
f 43/74/3 33/79/3 31/78/3
f 47/80/9 30/17/9 29/75/9
f 47/80/9 29/75/9 46/81/9
f 47/80/9 46/81/9 37/82/9
f 37/82/9 42/83/9 47/80/9
f 19/84/2 16/85/2 50/47/2
f 50/47/2 39/60/2 19/84/2
f 23/86/9 50/87/9 34/88/9
f 25/89/9 50/87/9 23/86/9
f 25/89/9 23/86/9 24/90/9
f 26/91/9 25/89/9 24/90/9
f 26/91/9 24/90/9 22/92/9
f 21/93/9 26/91/9 22/92/9
f 21/93/9 22/92/9 8/94/9
f 3/95/9 21/93/9 8/94/9
f 3/95/9 8/94/9 7/96/9
f 7/96/9 4/97/9 3/95/9
f 25/89/9 32/98/9 50/87/9
f 32/98/9 40/82/9 50/87/9
f 32/98/9 44/81/9 40/82/9
f 50/87/9 40/82/9 39/99/9
f 2/1/10 4/100/10 7/101/10
f 7/101/10 5/102/10 2/1/10
usemtl wallDark.008
f 10/103/1 12/104/1 26/105/1
f 26/105/1 21/106/1 10/103/1
f 11/107/2 9/108/2 22/109/2
f 22/109/2 24/110/2 11/107/2
f 34/111/8 50/54/8 16/50/8
f 16/50/8 15/112/8 34/111/8
