# Blender 4.0.2
# www.blender.org
mtllib wallCorner.mtl
o wallCorner
v 4.947885 -6.055331 5.052115
v -5.052115 -6.055331 5.052115
v 4.947885 -3.255331 5.052115
v -5.052115 -3.255331 5.052115
v -5.052115 -6.055332 -4.947885
v 4.947885 -6.055332 -4.947885
v -5.052115 -3.255332 -4.947885
v 4.947885 -3.255332 -4.947885
v -4.702116 -1.555332 -4.947885
v 4.597884 -1.555332 -4.947885
v -4.702116 4.044669 -4.947886
v 4.597884 4.044669 -4.947886
v -5.052115 5.044669 -4.947886
v 4.947885 5.044669 -4.947886
v 2.856241 5.744668 -4.947886
v 4.947885 6.594668 -4.947886
v -2.960472 5.744668 -4.947886
v 3.752835 6.144668 -4.947886
v 2.856241 6.144668 -4.947886
v 3.752835 6.594668 -4.947886
v -5.052115 7.044669 -4.947886
v -3.357066 6.144668 -4.947886
v -3.357066 7.044669 -4.947886
v -2.960472 6.144668 -4.947886
v -5.052115 6.594668 0.052114
v -3.857066 6.594668 0.052114
v -5.052115 7.044669 0.052114
v -3.357066 7.044669 0.052114
v -3.357066 6.144669 0.052114
v -3.857066 6.144669 0.052114
v -3.357066 6.144669 2.552114
v -3.357066 7.044669 2.552114
v 4.947885 5.744669 -2.856242
v 2.856241 5.744669 -2.856242
v 4.947885 6.144669 -2.856242
v 2.856241 6.144669 -2.856242
v 3.752835 6.594668 -3.752836
v 4.947885 6.594668 -3.752836
v 3.752835 6.144668 -3.752836
v 4.947885 6.144668 -3.752836
v 4.947885 6.144669 3.357065
v 4.947885 7.044670 3.357065
v 2.447885 6.144669 3.357065
v 2.447885 7.044670 3.357065
v 2.447885 7.044670 5.052114
v 2.447885 6.594669 5.052114
v 2.447885 6.594669 3.857065
v 2.447885 6.144669 3.857065
v 4.947885 7.044670 5.052114
v -3.357066 6.144669 -2.447886
v -3.357066 7.044669 -2.447886
v -3.857066 6.144669 3.857065
v -3.857066 6.594669 3.857065
v -3.857066 6.144669 2.552114
v -3.857066 6.594668 2.552114
v -5.052115 6.594668 -2.447886
v -3.857066 6.594668 -2.447886
v -5.052115 6.594668 2.552114
v -5.052115 6.594669 5.052114
v -2.552115 6.594669 5.052114
v -2.552115 6.594669 3.857065
v -0.052115 6.144669 3.857065
v -0.052115 6.594669 3.857065
v -0.052115 6.594669 5.052114
v -3.857066 6.144669 -2.447886
v -2.552115 7.044670 5.052114
v -2.552115 7.044670 3.357065
v -0.052115 7.044670 5.052114
v -0.052115 7.044670 3.357065
v -5.052115 7.044669 2.552114
v -5.052115 7.044669 -2.447886
v -0.052115 6.144669 3.357065
v -2.552115 6.144669 3.357065
v 4.947885 -1.555331 4.702115
v 4.947885 4.044670 4.702115
v 4.947885 5.744669 2.960471
v 4.947885 -1.555332 -4.597885
v 4.947885 4.044669 -4.597885
v 4.947885 6.144669 2.960471
v 4.947885 5.044670 5.052114
v -2.552115 6.144669 3.857065
v -5.052115 5.044670 5.052114
v -4.702116 4.044670 4.702115
v -4.702116 -1.555331 4.702115
v -2.960472 6.144669 2.960471
v -2.960472 5.744669 2.960471
vn -0.0000 -0.0000 1.0000
vn -0.0000 -0.0000 -1.0000
vn -1.0000 -0.0000 -0.0000
vn 1.0000 -0.0000 -0.0000
vn -0.0000 1.0000 -0.0000
vn -0.0000 -1.0000 -0.0000
vn 0.6997 0.1441 -0.6997
vn -0.9439 -0.3304 -0.0000
vn -0.0000 0.2017 0.9795
vn 0.7071 -0.0000 -0.7071
vn 0.6864 -0.2402 -0.6864
vn -0.9795 0.2017 -0.0000
vn -0.0000 -0.3304 0.9439
vt 0.000000 0.000000
vt 39.370079 0.000000
vt 39.370079 11.023620
vt 0.000000 11.023620
vt -39.370079 0.000000
vt 0.000000 0.000000
vt 0.000000 11.023620
vt -39.370079 11.023620
vt -1.377953 17.716539
vt -37.992130 17.716539
vt -1.377953 39.763779
vt -37.992130 39.763779
vt -0.000000 43.700790
vt -39.370079 43.700790
vt -31.135260 46.456692
vt -39.370079 49.803150
vt -8.234817 46.456692
vt -34.665161 48.031502
vt -31.135260 48.031502
vt -34.665161 49.803150
vt -0.000000 51.574799
vt -6.673423 48.031502
vt -6.673423 51.574799
vt -8.234817 48.031502
vt -4.704919 49.803150
vt -0.000000 49.803150
vt -0.000000 51.574799
vt -4.704919 48.031502
vt -39.370079 0.000000
vt 9.842520 51.574799
vt 9.842520 48.031502
vt 19.685040 48.031502
vt 19.685040 51.574799
vt 31.135260 46.456692
vt 39.370079 46.456692
vt 39.370079 48.031502
vt 31.135260 48.031502
vt 34.665161 39.370079
vt 34.665161 34.665161
vt 39.370079 34.665161
vt 39.370079 39.370079
vt -39.370079 48.031502
vt -39.370079 46.456692
vt 34.665161 48.031502
vt 39.370079 49.803150
vt 34.665161 49.803150
vt -39.370079 51.574799
vt -29.527559 48.031502
vt -29.527559 51.574799
vt 0.000000 49.803150
vt 0.000000 51.574799
vt 39.370079 6.673423
vt 29.527559 6.673423
vt 29.527559 -0.000000
vt 39.370079 -0.000000
vt 29.527559 51.574799
vt 29.527559 48.031502
vt 39.370079 51.574799
vt 4.704919 49.803150
vt 4.704919 48.031502
vt 9.842520 49.803150
vt 4.704919 29.527559
vt 0.000000 29.527559
vt 0.000000 19.685040
vt 4.704919 19.685040
vt 0.000000 0.000000
vt 0.000000 39.370079
vt -39.370079 39.370079
vt -39.370079 0.000000
vt 4.704919 9.842520
vt -0.000000 9.842520
vt -0.000000 0.000000
vt 4.704919 4.704919
vt 9.842520 0.000000
vt 9.842520 4.704919
vt -29.527559 49.803150
vt -19.685040 48.031502
vt -19.685040 49.803150
vt 19.685040 4.704919
vt 19.685040 -0.000000
vt 29.527559 -0.000000
vt 29.527559 4.704919
vt 19.685040 49.803150
vt 29.527559 49.803150
vt 9.842520 6.673423
vt 9.842520 0.000000
vt 19.685040 0.000000
vt 19.685040 6.673423
vt 6.673423 48.031502
vt 6.673423 51.574799
vt 0.000000 49.803150
vt 0.000000 51.574799
vt 0.000000 9.842520
vt 6.673423 9.842520
vt 6.673423 19.685040
vt -0.000000 49.803150
vt -0.000000 51.574799
vt 0.000000 39.370079
vt 6.673423 29.527559
vt 6.673423 39.370079
vt 0.000000 51.574799
vt 0.000000 49.803150
vt -19.685040 51.574799
vt -9.842520 48.031502
vt -9.842520 51.574799
vt -0.000000 11.023620
vt -0.000000 -0.000000
vt 39.370079 -0.000000
vt 1.377953 17.716539
vt 1.377953 39.763779
vt 8.234817 46.456692
vt 37.992130 17.716539
vt 37.992130 39.763779
vt 39.370079 43.700790
vt 8.234817 48.031502
vt -0.000000 51.574799
vt -0.000000 43.700790
vt -0.000000 49.803150
vt -0.000000 51.574799
vt -0.974360 9.651044
vt -0.000000 2.887579
vt 0.974360 9.651044
vt -1.377953 37.076172
vt -0.000000 41.247349
vt -39.370079 41.247349
vt -39.370079 37.076172
vt -0.000000 10.797160
vt 39.370079 10.797160
vt 39.370079 17.630449
vt 1.377953 17.630449
vt -0.974360 39.763779
vt -0.974360 17.716539
vt 0.974360 17.716539
vt 0.974360 39.763779
vt -0.974360 51.741138
vt 0.974360 51.741138
vt -0.000000 55.796928
vt -39.370079 10.797160
vt 0.000000 10.797160
vt -1.377953 17.630449
vt -39.370079 17.630449
vt -9.842520 49.803150
vt 0.000000 43.700790
vt 31.135260 39.370079
vt 31.135260 31.135260
vt 39.370079 31.135260
vt 0.000000 43.700790
vt 0.000000 49.803150
vt 8.234817 8.234817
vt 8.234817 39.370079
vt 39.370079 8.234817
vt 1.377953 37.076172
vt 39.370079 37.076172
vt 39.370079 41.247349
vt 0.000000 41.247349
vt 39.370079 17.716539
vt 39.370079 39.763779
vt -39.370079 39.763779
vt -39.370079 17.716539
s 0
usemtl wall.006
f 2/1/1 1/2/1 3/3/1
f 3/3/1 4/4/1 2/1/1
f 6/5/2 5/6/2 7/7/2
f 7/7/2 8/8/2 6/5/2
f 7/7/2 9/9/2 8/8/2
f 9/9/2 10/10/2 8/8/2
f 9/9/2 11/11/2 10/10/2
f 11/11/2 12/12/2 10/10/2
f 11/11/2 13/13/2 12/12/2
f 13/13/2 14/14/2 12/12/2
f 13/13/2 15/15/2 14/14/2
f 15/15/2 16/16/2 14/14/2
f 13/13/2 17/17/2 15/15/2
f 15/15/2 18/18/2 16/16/2
f 15/15/2 19/19/2 18/18/2
f 18/18/2 20/20/2 16/16/2
f 17/17/2 13/13/2 21/21/2
f 21/21/2 22/22/2 17/17/2
f 21/21/2 23/23/2 22/22/2
f 17/17/2 22/22/2 24/24/2
f 26/25/2 25/26/2 27/27/2
f 26/25/2 27/27/2 28/23/2
f 26/25/2 28/23/2 29/22/2
f 29/22/2 30/28/2 26/25/2
f 2/1/3 4/4/3 7/8/3
f 7/8/3 5/29/3 2/1/3
f 32/30/4 31/31/4 29/32/4
f 29/32/4 28/33/4 32/30/4
f 34/34/1 33/35/1 35/36/1
f 35/36/1 36/37/1 34/34/1
f 20/38/5 37/39/5 38/40/5
f 38/40/5 16/41/5 20/38/5
f 34/15/3 36/19/3 19/42/3
f 19/42/3 15/43/3 34/15/3
f 39/18/3 37/20/3 20/16/3
f 20/16/3 18/42/3 39/18/3
f 39/44/1 40/36/1 38/45/1
f 38/45/1 37/46/1 39/44/1
f 42/47/2 41/42/2 43/48/2
f 43/48/2 44/49/2 42/47/2
f 46/50/3 45/51/3 44/23/3
f 44/23/3 47/25/3 46/50/3
f 44/23/3 48/28/3 47/25/3
f 44/23/3 43/22/3 48/28/3
f 42/52/5 44/53/5 45/54/5
f 45/54/5 49/55/5 42/52/5
f 51/56/4 50/57/4 22/36/4
f 22/36/4 23/58/4 51/56/4
f 53/59/4 52/60/4 54/31/4
f 54/31/4 55/61/4 53/59/4
f 57/62/5 56/63/5 25/64/5
f 25/64/5 26/65/5 57/62/5
f 2/66/6 5/67/6 6/68/6
f 6/68/6 1/69/6 2/66/6
f 55/70/5 58/71/5 59/72/5
f 59/72/5 53/73/5 55/70/5
f 59/72/5 60/74/5 53/73/5
f 60/74/5 61/75/5 53/73/5
f 47/76/2 48/48/2 62/77/2
f 62/77/2 63/78/2 47/76/2
f 63/79/5 64/80/5 46/81/5
f 46/81/5 47/82/5 63/79/5
f 26/83/4 30/32/4 65/57/4
f 65/57/4 57/84/4 26/83/4
f 67/85/5 66/86/5 68/87/5
f 68/87/5 69/88/5 67/85/5
f 54/60/1 31/89/1 32/90/1
f 32/90/1 55/59/1 54/60/1
f 32/90/1 58/91/1 55/59/1
f 32/90/1 70/92/1 58/91/1
f 27/64/5 70/93/5 32/94/5
f 32/94/5 28/95/5 27/64/5
f 65/60/1 50/89/1 51/90/1
f 51/90/1 57/59/1 65/60/1
f 51/90/1 56/96/1 57/59/1
f 51/90/1 71/97/1 56/96/1
f 21/98/5 71/63/5 51/99/5
f 51/99/5 23/100/5 21/98/5
f 63/59/4 62/60/4 72/89/4
f 63/59/4 72/89/4 69/90/4
f 63/59/4 69/90/4 68/101/4
f 68/101/4 64/102/4 63/59/4
f 69/103/2 72/77/2 73/104/2
f 73/104/2 67/105/2 69/103/2
f 3/106/4 1/107/4 6/108/4
f 6/108/4 74/109/4 3/106/4
f 6/108/4 75/110/4 74/109/4
f 6/108/4 41/89/4 75/110/4
f 6/108/4 76/111/4 41/89/4
f 6/108/4 33/34/4 76/111/4
f 6/108/4 35/37/4 33/34/4
f 6/108/4 40/44/4 35/37/4
f 6/108/4 38/46/4 40/44/4
f 6/108/4 77/112/4 38/46/4
f 6/108/4 8/3/4 77/112/4
f 38/46/4 77/112/4 78/113/4
f 78/113/4 16/45/4 38/46/4
f 78/113/4 14/114/4 16/45/4
f 41/89/4 76/111/4 79/115/4
f 75/110/4 41/89/4 42/90/4
f 75/110/4 42/90/4 49/116/4
f 49/116/4 80/117/4 75/110/4
f 60/118/3 66/119/3 67/23/3
f 67/23/3 61/25/3 60/118/3
f 67/23/3 81/28/3 61/25/3
f 67/23/3 73/22/3 81/28/3
f 77/120/7 8/121/7 10/122/7
f 83/123/8 82/124/8 13/125/8
f 13/125/8 11/126/8 83/123/8
f 4/127/9 3/128/9 74/129/9
f 74/129/9 84/130/9 4/127/9
f 78/131/10 77/132/10 10/133/10
f 10/133/10 12/134/10 78/131/10
f 78/135/11 12/136/11 14/137/11
f 7/138/12 4/139/12 84/140/12
f 84/140/12 9/141/12 7/138/12
f 58/142/3 70/105/3 27/103/3
f 58/142/3 27/103/3 25/78/3
f 58/142/3 25/78/3 13/14/3
f 58/142/3 13/14/3 82/143/3
f 82/143/3 59/91/3 58/142/3
f 25/78/3 56/76/3 13/14/3
f 56/76/3 21/47/3 13/14/3
f 56/76/3 71/49/3 21/47/3
f 19/144/5 39/39/5 18/38/5
f 39/39/5 19/144/5 36/145/5
f 36/145/5 35/146/5 39/39/5
f 35/146/5 40/40/5 39/39/5
f 82/147/1 80/114/1 49/58/1
f 49/58/1 46/84/1 82/147/1
f 49/58/1 45/56/1 46/84/1
f 82/147/1 46/84/1 64/83/1
f 82/147/1 64/83/1 60/61/1
f 60/61/1 64/83/1 68/33/1
f 68/33/1 66/30/1 60/61/1
f 60/61/1 59/148/1 82/147/1
f 22/100/5 85/149/5 24/150/5
f 85/149/5 22/100/5 50/99/5
f 85/149/5 50/99/5 29/95/5
f 85/149/5 29/95/5 31/94/5
f 81/75/5 85/149/5 31/94/5
f 52/73/5 81/75/5 31/94/5
f 31/94/5 54/70/5 52/73/5
f 81/75/5 73/85/5 85/149/5
f 73/85/5 79/151/5 85/149/5
f 73/85/5 72/88/5 79/151/5
f 72/88/5 43/53/5 79/151/5
f 72/88/5 62/79/5 43/53/5
f 62/79/5 48/82/5 43/53/5
f 43/53/5 41/52/5 79/151/5
f 29/95/5 50/99/5 65/62/5
f 65/62/5 30/65/5 29/95/5
f 81/104/2 52/28/2 53/25/2
f 53/25/2 61/142/2 81/104/2
f 85/115/4 86/111/4 17/35/4
f 17/35/4 24/36/4 85/115/4
f 79/42/2 76/43/2 86/17/2
f 86/17/2 85/24/2 79/42/2
f 83/152/13 75/153/13 80/154/13
f 80/154/13 82/155/13 83/152/13
usemtl wallDark.006
f 84/109/1 74/156/1 75/157/1
f 75/157/1 83/110/1 84/109/1
f 84/9/3 83/11/3 11/158/3
f 11/158/3 9/159/3 84/9/3
f 17/150/5 34/145/5 15/144/5
f 76/151/5 34/145/5 17/150/5
f 17/150/5 86/149/5 76/151/5
f 76/151/5 33/146/5 34/145/5
